<?xml version="1.0" encoding="UTF-8"?>
<svg xmlns="http://www.w3.org/2000/svg" xmlns:xlink="http://www.w3.org/1999/xlink" width="3873" height="3873" viewBox="0 0 3873 3873">
<defs>
<clipPath id="clip-0">

</clipPath>
<clipPath id="clip-1">
<path clip-rule="evenodd" d="M 484.5 1142.398438 L 484.5 874 C 484.5 814.601562 507.800781 758.898438 550.101562 716.5 C 592.5 674.101562 648.199219 650.898438 707.601562 650.898438 L 3165.398438 650.898438 C 3224.800781 650.898438 3280.5 674.199219 3322.898438 716.5 C 3365.199219 758.800781 3388.5 814.800781 3388.5 874 L 3388.5 1142.5 Z M 881.5 824.300781 C 835.601562 824.300781 798.300781 860.800781 798.300781 905.601562 C 798.300781 950.398438 835.5 986.898438 881.5 986.898438 C 927.101562 986.898438 962.800781 951.199219 962.800781 905.601562 C 962.800781 860.101562 927.101562 824.300781 881.5 824.300781 Z M 881.5 1047.398438 C 843.300781 1047.398438 807.398438 1032.800781 780.199219 1006.398438 C 753 979.699219 737.898438 943.800781 737.898438 905.601562 C 737.898438 867.398438 753 831.5 780.199219 804.800781 C 807.199219 778.300781 843.199219 763.800781 881.5 763.800781 C 919.699219 763.800781 955.398438 778.398438 982.101562 805 C 1008.800781 831.699219 1023.300781 867.398438 1023.300781 905.601562 C 1023.300781 943.800781 1008.699219 979.5 982.101562 1006.199219 C 955.5 1032.898438 919.699219 1047.398438 881.5 1047.398438 Z M 1238.898438 824.300781 C 1193 824.300781 1155.699219 860.800781 1155.699219 905.601562 C 1155.699219 950.398438 1192.898438 986.898438 1238.898438 986.898438 C 1283.699219 986.898438 1320.199219 950.398438 1320.199219 905.601562 C 1320.199219 860.800781 1283.699219 824.300781 1238.898438 824.300781 Z M 1238.898438 1047.398438 C 1200.699219 1047.398438 1164.800781 1032.800781 1137.601562 1006.398438 C 1110.398438 979.699219 1095.300781 943.800781 1095.300781 905.601562 C 1095.300781 867.398438 1110.398438 831.5 1137.601562 804.800781 C 1164.601562 778.300781 1200.601562 763.800781 1238.898438 763.800781 C 1317.199219 763.800781 1380.699219 827.300781 1380.699219 905.601562 C 1380.699219 983.898438 1317.101562 1047.398438 1238.898438 1047.398438 Z M 1596.199219 824.300781 C 1550.300781 824.300781 1513 860.800781 1513 905.601562 C 1513 950.398438 1550.199219 986.898438 1596.199219 986.898438 C 1641 986.898438 1677.5 950.398438 1677.5 905.601562 C 1677.5 860.800781 1641 824.300781 1596.199219 824.300781 Z M 1596.199219 1047.398438 C 1558 1047.398438 1522.101562 1032.800781 1494.898438 1006.398438 C 1467.699219 979.699219 1452.601562 943.800781 1452.601562 905.601562 C 1452.601562 867.398438 1467.699219 831.5 1494.898438 804.800781 C 1521.898438 778.300781 1557.898438 763.800781 1596.199219 763.800781 C 1674.5 763.800781 1738 827.300781 1738 905.601562 C 1738 983.898438 1674.5 1047.398438 1596.199219 1047.398438 Z M 2360 1007.699219 L 3074.699219 1007.699219 L 3074.699219 824.300781 L 2360 824.300781 Z M 3104.898438 1068.199219 L 2329.699219 1068.199219 C 2313.101562 1068.199219 2299.5 1054.601562 2299.5 1038 L 2299.5 794.101562 C 2299.5 777.5 2313.101562 763.898438 2329.699219 763.898438 L 3104.898438 763.898438 C 3121.5 763.898438 3135.101562 777.5 3135.101562 794.101562 L 3135.101562 1038 C 3135.101562 1054.601562 3121.5 1068.199219 3104.898438 1068.199219 Z M 1308.800781 1571.601562 C 1206 1571.601562 1125.398438 1652.101562 1125.398438 1755 C 1125.398438 1857.101562 1207.601562 1940.300781 1308.800781 1940.300781 C 1409.898438 1940.300781 1492.199219 1857.101562 1492.199219 1755 C 1492.199219 1652.101562 1411.699219 1571.601562 1308.800781 1571.601562 Z M 1308.800781 2000.800781 C 1243.199219 2000.800781 1181.800781 1975.300781 1135.800781 1928.800781 C 1090 1882.5 1064.898438 1820.800781 1064.898438 1755.101562 C 1064.898438 1689.5 1090 1628.101562 1136 1582.300781 C 1181.898438 1536.5 1243.199219 1511.199219 1308.800781 1511.199219 C 1374.398438 1511.199219 1435.800781 1536.300781 1481.601562 1582.300781 C 1527.398438 1628.199219 1552.699219 1689.5 1552.699219 1755.101562 C 1552.699219 1820.898438 1527.601562 1882.5 1481.800781 1928.800781 C 1435.898438 1975.199219 1374.398438 2000.800781 1308.800781 2000.800781 Z M 1272.898438 2995.199219 L 1666.101562 2995.199219 L 1666.101562 2934.699219 L 1375 2934.699219 C 1358.398438 2934.699219 1344.800781 2921.101562 1344.800781 2904.5 L 1344.800781 2791 C 1344.800781 2774.398438 1358.398438 2760.800781 1375 2760.800781 L 1562.199219 2760.800781 L 1562.199219 2700.300781 L 1375 2700.300781 C 1358.398438 2700.300781 1344.800781 2686.699219 1344.800781 2670.101562 L 1344.800781 2581.199219 C 1344.800781 2564.601562 1358.398438 2551 1375 2551 L 1666.199219 2551 L 1666.199219 2490.5 L 1375 2490.5 C 1358.398438 2490.5 1344.800781 2476.898438 1344.800781 2460.300781 L 1344.800781 2165.398438 C 1344.800781 2150.699219 1355.601562 2138 1370.101562 2135.5 C 1557.101562 2105.300781 1692.601562 1945.300781 1692.601562 1755.101562 C 1692.601562 1543.5 1520.398438 1371.300781 1308.800781 1371.300781 C 1097.199219 1371.300781 925 1543.5 925 1755.101562 C 925 1945.300781 1060.601562 2105.199219 1247.5 2135.5 C 1262.101562 2138 1272.800781 2150.398438 1272.800781 2165.398438 Z M 1696.398438 3055.699219 L 1242.699219 3055.699219 C 1226.101562 3055.699219 1212.5 3042.101562 1212.5 3025.5 L 1212.5 2190.199219 C 1118.898438 2169.398438 1034 2118.398438 971.398438 2045 C 902.601562 1964.5 864.601562 1861.398438 864.601562 1755 C 864.601562 1636.300781 910.699219 1524.699219 994.699219 1440.800781 C 1078.601562 1356.898438 1190.199219 1310.699219 1308.898438 1310.699219 C 1427.601562 1310.699219 1539.199219 1356.800781 1623.101562 1440.800781 C 1707 1524.699219 1753.199219 1636.300781 1753.199219 1755 C 1753.199219 1861.398438 1715.398438 1964.5 1646.398438 2045 C 1583.601562 2118.398438 1498.699219 2169.398438 1405.300781 2190.199219 L 1405.300781 2429.898438 L 1696.5 2429.898438 C 1713.101562 2429.898438 1726.699219 2443.5 1726.699219 2460.101562 L 1726.699219 2581.101562 C 1726.699219 2597.699219 1713.101562 2611.300781 1696.5 2611.300781 L 1405.300781 2611.300781 L 1405.300781 2639.699219 L 1592.5 2639.699219 C 1609.101562 2639.699219 1622.699219 2653.300781 1622.699219 2669.898438 L 1622.699219 2790.898438 C 1622.699219 2807.5 1609.101562 2821.101562 1592.5 2821.101562 L 1405.300781 2821.101562 L 1405.300781 2874 L 1696.5 2874 C 1713.101562 2874 1726.699219 2887.601562 1726.699219 2904.199219 L 1726.699219 3025.199219 C 1726.601562 3042.101562 1713 3055.699219 1696.398438 3055.699219 Z M 2705.398438 2643 L 2459.800781 1835.101562 L 2207.398438 2643.199219 C 2203.398438 2656.101562 2191.300781 2664.601562 2177.898438 2664.398438 C 2164.5 2664 2152.800781 2654.898438 2149.398438 2641.898438 L 1911.199219 1740.101562 C 1906.898438 1724 1916.5 1707.398438 1932.800781 1703 C 1948.898438 1698.699219 1965.5 1708.300781 1969.898438 1724.601562 L 2181.300781 2524.898438 L 2431.601562 1723.300781 C 2435.601562 1710.601562 2447.5 1702.101562 2460.5 1702.101562 C 2473.699219 1702.101562 2485.5 1710.800781 2489.199219 1723.5 L 2732.699219 2524.601562 L 2949.199219 1724.5 C 2953.5 1708.398438 2970.199219 1698.800781 2986.300781 1703.101562 C 3002.398438 1707.398438 3012 1724.101562 3007.699219 1740.199219 L 2763.800781 2642 C 2755.601562 2671 2714.101562 2672 2705.398438 2643 Z M 3165.398438 3222.101562 L 707.601562 3222.101562 C 648.199219 3222.101562 592.5 3198.800781 550.101562 3156.5 C 507.699219 3114.101562 484.5 3058.398438 484.5 2999 L 484.5 1202.898438 L 3388.5 1202.898438 L 3388.5 2999 C 3388.5 3058.398438 3365.199219 3114.101562 3322.898438 3156.5 C 3280.5 3198.898438 3224.800781 3222.101562 3165.398438 3222.101562 "/>
</clipPath>
<linearGradient id="linear-pattern-0" gradientUnits="userSpaceOnUse" x1="-0.42592" y1="0" x2="1.425923" y2="0" gradientTransform="matrix(1292.19, -1609.96, 1609.96, 1292.19, 1290.4, 2741.48)">
<stop offset="0" stop-color="rgb(54.508972%, 76.469421%, 29.019165%)" stop-opacity="1"/>
<stop offset="0.125" stop-color="rgb(54.508972%, 76.469421%, 29.019165%)" stop-opacity="1"/>
<stop offset="0.1875" stop-color="rgb(54.508972%, 76.469421%, 29.019165%)" stop-opacity="1"/>
<stop offset="0.21875" stop-color="rgb(54.508972%, 76.469421%, 29.019165%)" stop-opacity="1"/>
<stop offset="0.234375" stop-color="rgb(54.685974%, 76.382446%, 28.901672%)" stop-opacity="1"/>
<stop offset="0.238281" stop-color="rgb(55.181885%, 76.138306%, 28.573608%)" stop-opacity="1"/>
<stop offset="0.242188" stop-color="rgb(55.500793%, 75.982666%, 28.363037%)" stop-opacity="1"/>
<stop offset="0.246094" stop-color="rgb(55.818176%, 75.827026%, 28.152466%)" stop-opacity="1"/>
<stop offset="0.25" stop-color="rgb(56.135559%, 75.671387%, 27.94342%)" stop-opacity="1"/>
<stop offset="0.253906" stop-color="rgb(56.452942%, 75.514221%, 27.732849%)" stop-opacity="1"/>
<stop offset="0.257812" stop-color="rgb(56.771851%, 75.358582%, 27.523804%)" stop-opacity="1"/>
<stop offset="0.261719" stop-color="rgb(57.089233%, 75.202942%, 27.313232%)" stop-opacity="1"/>
<stop offset="0.265625" stop-color="rgb(57.406616%, 75.047302%, 27.104187%)" stop-opacity="1"/>
<stop offset="0.269531" stop-color="rgb(57.723999%, 74.890137%, 26.893616%)" stop-opacity="1"/>
<stop offset="0.273438" stop-color="rgb(58.042908%, 74.734497%, 26.68457%)" stop-opacity="1"/>
<stop offset="0.277344" stop-color="rgb(58.360291%, 74.578857%, 26.473999%)" stop-opacity="1"/>
<stop offset="0.28125" stop-color="rgb(58.677673%, 74.423218%, 26.264954%)" stop-opacity="1"/>
<stop offset="0.285156" stop-color="rgb(58.995056%, 74.266052%, 26.054382%)" stop-opacity="1"/>
<stop offset="0.289062" stop-color="rgb(59.312439%, 74.110413%, 25.845337%)" stop-opacity="1"/>
<stop offset="0.292969" stop-color="rgb(59.629822%, 73.954773%, 25.634766%)" stop-opacity="1"/>
<stop offset="0.296875" stop-color="rgb(59.94873%, 73.799133%, 25.424194%)" stop-opacity="1"/>
<stop offset="0.300781" stop-color="rgb(60.266113%, 73.641968%, 25.213623%)" stop-opacity="1"/>
<stop offset="0.304688" stop-color="rgb(60.583496%, 73.486328%, 25.004578%)" stop-opacity="1"/>
<stop offset="0.308594" stop-color="rgb(60.900879%, 73.330688%, 24.794006%)" stop-opacity="1"/>
<stop offset="0.3125" stop-color="rgb(61.219788%, 73.175049%, 24.584961%)" stop-opacity="1"/>
<stop offset="0.316406" stop-color="rgb(61.53717%, 73.017883%, 24.37439%)" stop-opacity="1"/>
<stop offset="0.320312" stop-color="rgb(61.854553%, 72.862244%, 24.165344%)" stop-opacity="1"/>
<stop offset="0.324219" stop-color="rgb(62.171936%, 72.706604%, 23.954773%)" stop-opacity="1"/>
<stop offset="0.328125" stop-color="rgb(62.490845%, 72.550964%, 23.745728%)" stop-opacity="1"/>
<stop offset="0.332031" stop-color="rgb(62.808228%, 72.393799%, 23.535156%)" stop-opacity="1"/>
<stop offset="0.335938" stop-color="rgb(63.12561%, 72.238159%, 23.326111%)" stop-opacity="1"/>
<stop offset="0.339844" stop-color="rgb(63.442993%, 72.08252%, 23.11554%)" stop-opacity="1"/>
<stop offset="0.34375" stop-color="rgb(63.761902%, 71.92688%, 22.906494%)" stop-opacity="1"/>
<stop offset="0.347656" stop-color="rgb(64.079285%, 71.769714%, 22.695923%)" stop-opacity="1"/>
<stop offset="0.351562" stop-color="rgb(64.396667%, 71.614075%, 22.485352%)" stop-opacity="1"/>
<stop offset="0.355469" stop-color="rgb(64.71405%, 71.458435%, 22.27478%)" stop-opacity="1"/>
<stop offset="0.359375" stop-color="rgb(65.031433%, 71.302795%, 22.065735%)" stop-opacity="1"/>
<stop offset="0.363281" stop-color="rgb(65.348816%, 71.14563%, 21.855164%)" stop-opacity="1"/>
<stop offset="0.367188" stop-color="rgb(65.667725%, 70.98999%, 21.646118%)" stop-opacity="1"/>
<stop offset="0.371094" stop-color="rgb(65.985107%, 70.834351%, 21.435547%)" stop-opacity="1"/>
<stop offset="0.375" stop-color="rgb(66.30249%, 70.678711%, 21.226501%)" stop-opacity="1"/>
<stop offset="0.378906" stop-color="rgb(66.619873%, 70.521545%, 21.01593%)" stop-opacity="1"/>
<stop offset="0.382812" stop-color="rgb(66.938782%, 70.365906%, 20.806885%)" stop-opacity="1"/>
<stop offset="0.386719" stop-color="rgb(67.256165%, 70.210266%, 20.596313%)" stop-opacity="1"/>
<stop offset="0.390625" stop-color="rgb(67.573547%, 70.054626%, 20.387268%)" stop-opacity="1"/>
<stop offset="0.394531" stop-color="rgb(67.89093%, 69.897461%, 20.176697%)" stop-opacity="1"/>
<stop offset="0.398438" stop-color="rgb(68.209839%, 69.741821%, 19.967651%)" stop-opacity="1"/>
<stop offset="0.402344" stop-color="rgb(68.527222%, 69.586182%, 19.75708%)" stop-opacity="1"/>
<stop offset="0.40625" stop-color="rgb(68.844604%, 69.430542%, 19.546509%)" stop-opacity="1"/>
<stop offset="0.410156" stop-color="rgb(69.161987%, 69.273376%, 19.335938%)" stop-opacity="1"/>
<stop offset="0.414062" stop-color="rgb(69.47937%, 69.117737%, 19.126892%)" stop-opacity="1"/>
<stop offset="0.417969" stop-color="rgb(69.796753%, 68.962097%, 18.916321%)" stop-opacity="1"/>
<stop offset="0.421875" stop-color="rgb(70.115662%, 68.806458%, 18.707275%)" stop-opacity="1"/>
<stop offset="0.425781" stop-color="rgb(70.433044%, 68.649292%, 18.496704%)" stop-opacity="1"/>
<stop offset="0.429688" stop-color="rgb(70.750427%, 68.493652%, 18.287659%)" stop-opacity="1"/>
<stop offset="0.433594" stop-color="rgb(71.06781%, 68.338013%, 18.077087%)" stop-opacity="1"/>
<stop offset="0.4375" stop-color="rgb(71.386719%, 68.182373%, 17.868042%)" stop-opacity="1"/>
<stop offset="0.441406" stop-color="rgb(71.704102%, 68.025208%, 17.657471%)" stop-opacity="1"/>
<stop offset="0.445312" stop-color="rgb(72.021484%, 67.869568%, 17.448425%)" stop-opacity="1"/>
<stop offset="0.449219" stop-color="rgb(72.338867%, 67.713928%, 17.237854%)" stop-opacity="1"/>
<stop offset="0.453125" stop-color="rgb(72.657776%, 67.558289%, 17.027283%)" stop-opacity="1"/>
<stop offset="0.457031" stop-color="rgb(72.975159%, 67.401123%, 16.816711%)" stop-opacity="1"/>
<stop offset="0.460938" stop-color="rgb(73.292542%, 67.245483%, 16.607666%)" stop-opacity="1"/>
<stop offset="0.464844" stop-color="rgb(73.609924%, 67.089844%, 16.397095%)" stop-opacity="1"/>
<stop offset="0.46875" stop-color="rgb(73.928833%, 66.934204%, 16.188049%)" stop-opacity="1"/>
<stop offset="0.472656" stop-color="rgb(74.246216%, 66.777039%, 15.977478%)" stop-opacity="1"/>
<stop offset="0.476562" stop-color="rgb(74.563599%, 66.621399%, 15.768433%)" stop-opacity="1"/>
<stop offset="0.480469" stop-color="rgb(74.880981%, 66.465759%, 15.557861%)" stop-opacity="1"/>
<stop offset="0.484375" stop-color="rgb(75.198364%, 66.31012%, 15.348816%)" stop-opacity="1"/>
<stop offset="0.488281" stop-color="rgb(75.515747%, 66.152954%, 15.138245%)" stop-opacity="1"/>
<stop offset="0.492188" stop-color="rgb(75.834656%, 65.997314%, 14.929199%)" stop-opacity="1"/>
<stop offset="0.496094" stop-color="rgb(76.152039%, 65.841675%, 14.718628%)" stop-opacity="1"/>
<stop offset="0.5" stop-color="rgb(76.469421%, 65.686035%, 14.509583%)" stop-opacity="1"/>
<stop offset="0.503906" stop-color="rgb(76.786804%, 65.52887%, 14.299011%)" stop-opacity="1"/>
<stop offset="0.507812" stop-color="rgb(77.105713%, 65.37323%, 14.08844%)" stop-opacity="1"/>
<stop offset="0.511719" stop-color="rgb(77.423096%, 65.21759%, 13.877869%)" stop-opacity="1"/>
<stop offset="0.515625" stop-color="rgb(77.740479%, 65.061951%, 13.668823%)" stop-opacity="1"/>
<stop offset="0.519531" stop-color="rgb(78.057861%, 64.904785%, 13.458252%)" stop-opacity="1"/>
<stop offset="0.523438" stop-color="rgb(78.37677%, 64.749146%, 13.249207%)" stop-opacity="1"/>
<stop offset="0.527344" stop-color="rgb(78.694153%, 64.593506%, 13.038635%)" stop-opacity="1"/>
<stop offset="0.53125" stop-color="rgb(79.011536%, 64.437866%, 12.82959%)" stop-opacity="1"/>
<stop offset="0.535156" stop-color="rgb(79.328918%, 64.280701%, 12.619019%)" stop-opacity="1"/>
<stop offset="0.539062" stop-color="rgb(79.647827%, 64.125061%, 12.409973%)" stop-opacity="1"/>
<stop offset="0.542969" stop-color="rgb(79.96521%, 63.969421%, 12.199402%)" stop-opacity="1"/>
<stop offset="0.546875" stop-color="rgb(80.282593%, 63.813782%, 11.990356%)" stop-opacity="1"/>
<stop offset="0.550781" stop-color="rgb(80.599976%, 63.656616%, 11.779785%)" stop-opacity="1"/>
<stop offset="0.554687" stop-color="rgb(80.917358%, 63.500977%, 11.57074%)" stop-opacity="1"/>
<stop offset="0.558594" stop-color="rgb(81.234741%, 63.345337%, 11.360168%)" stop-opacity="1"/>
<stop offset="0.5625" stop-color="rgb(81.55365%, 63.189697%, 11.149597%)" stop-opacity="1"/>
<stop offset="0.566406" stop-color="rgb(81.871033%, 63.032532%, 10.939026%)" stop-opacity="1"/>
<stop offset="0.570312" stop-color="rgb(82.188416%, 62.876892%, 10.72998%)" stop-opacity="1"/>
<stop offset="0.574219" stop-color="rgb(82.505798%, 62.721252%, 10.519409%)" stop-opacity="1"/>
<stop offset="0.578125" stop-color="rgb(82.824707%, 62.565613%, 10.310364%)" stop-opacity="1"/>
<stop offset="0.582031" stop-color="rgb(83.14209%, 62.408447%, 10.099792%)" stop-opacity="1"/>
<stop offset="0.585938" stop-color="rgb(83.459473%, 62.252808%, 9.890747%)" stop-opacity="1"/>
<stop offset="0.589844" stop-color="rgb(83.776855%, 62.097168%, 9.680176%)" stop-opacity="1"/>
<stop offset="0.59375" stop-color="rgb(84.095764%, 61.941528%, 9.47113%)" stop-opacity="1"/>
<stop offset="0.597656" stop-color="rgb(84.413147%, 61.784363%, 9.260559%)" stop-opacity="1"/>
<stop offset="0.601562" stop-color="rgb(84.73053%, 61.628723%, 9.051514%)" stop-opacity="1"/>
<stop offset="0.605469" stop-color="rgb(85.047913%, 61.473083%, 8.840942%)" stop-opacity="1"/>
<stop offset="0.609375" stop-color="rgb(85.365295%, 61.317444%, 8.631897%)" stop-opacity="1"/>
<stop offset="0.613281" stop-color="rgb(85.682678%, 61.160278%, 8.421326%)" stop-opacity="1"/>
<stop offset="0.617188" stop-color="rgb(86.001587%, 61.004639%, 8.210754%)" stop-opacity="1"/>
<stop offset="0.621094" stop-color="rgb(86.31897%, 60.848999%, 8.000183%)" stop-opacity="1"/>
<stop offset="0.625" stop-color="rgb(86.636353%, 60.693359%, 7.791138%)" stop-opacity="1"/>
<stop offset="0.628906" stop-color="rgb(86.953735%, 60.536194%, 7.580566%)" stop-opacity="1"/>
<stop offset="0.632812" stop-color="rgb(87.272644%, 60.380554%, 7.371521%)" stop-opacity="1"/>
<stop offset="0.636719" stop-color="rgb(87.590027%, 60.224915%, 7.16095%)" stop-opacity="1"/>
<stop offset="0.640625" stop-color="rgb(87.90741%, 60.069275%, 6.951904%)" stop-opacity="1"/>
<stop offset="0.644531" stop-color="rgb(88.224792%, 59.912109%, 6.741333%)" stop-opacity="1"/>
<stop offset="0.648438" stop-color="rgb(88.543701%, 59.75647%, 6.532288%)" stop-opacity="1"/>
<stop offset="0.652344" stop-color="rgb(88.861084%, 59.60083%, 6.321716%)" stop-opacity="1"/>
<stop offset="0.65625" stop-color="rgb(89.178467%, 59.44519%, 6.112671%)" stop-opacity="1"/>
<stop offset="0.660156" stop-color="rgb(89.49585%, 59.288025%, 5.9021%)" stop-opacity="1"/>
<stop offset="0.664062" stop-color="rgb(89.814758%, 59.132385%, 5.693054%)" stop-opacity="1"/>
<stop offset="0.667969" stop-color="rgb(90.132141%, 58.976746%, 5.482483%)" stop-opacity="1"/>
<stop offset="0.671875" stop-color="rgb(90.449524%, 58.821106%, 5.271912%)" stop-opacity="1"/>
<stop offset="0.675781" stop-color="rgb(90.766907%, 58.66394%, 5.06134%)" stop-opacity="1"/>
<stop offset="0.679688" stop-color="rgb(91.08429%, 58.508301%, 4.852295%)" stop-opacity="1"/>
<stop offset="0.683594" stop-color="rgb(91.401672%, 58.352661%, 4.641724%)" stop-opacity="1"/>
<stop offset="0.6875" stop-color="rgb(91.720581%, 58.197021%, 4.432678%)" stop-opacity="1"/>
<stop offset="0.691406" stop-color="rgb(92.037964%, 58.039856%, 4.222107%)" stop-opacity="1"/>
<stop offset="0.695312" stop-color="rgb(92.355347%, 57.884216%, 4.013062%)" stop-opacity="1"/>
<stop offset="0.699219" stop-color="rgb(92.672729%, 57.728577%, 3.80249%)" stop-opacity="1"/>
<stop offset="0.703125" stop-color="rgb(92.991638%, 57.572937%, 3.593445%)" stop-opacity="1"/>
<stop offset="0.707031" stop-color="rgb(93.309021%, 57.415771%, 3.382874%)" stop-opacity="1"/>
<stop offset="0.710938" stop-color="rgb(93.626404%, 57.260132%, 3.173828%)" stop-opacity="1"/>
<stop offset="0.714844" stop-color="rgb(93.943787%, 57.104492%, 2.963257%)" stop-opacity="1"/>
<stop offset="0.71875" stop-color="rgb(94.262695%, 56.948853%, 2.752686%)" stop-opacity="1"/>
<stop offset="0.722656" stop-color="rgb(94.580078%, 56.791687%, 2.542114%)" stop-opacity="1"/>
<stop offset="0.726563" stop-color="rgb(94.897461%, 56.636047%, 2.333069%)" stop-opacity="1"/>
<stop offset="0.730469" stop-color="rgb(95.214844%, 56.480408%, 2.122498%)" stop-opacity="1"/>
<stop offset="0.734375" stop-color="rgb(95.533752%, 56.324768%, 1.913452%)" stop-opacity="1"/>
<stop offset="0.738281" stop-color="rgb(95.851135%, 56.167603%, 1.702881%)" stop-opacity="1"/>
<stop offset="0.742187" stop-color="rgb(96.168518%, 56.011963%, 1.493835%)" stop-opacity="1"/>
<stop offset="0.746094" stop-color="rgb(96.485901%, 55.856323%, 1.283264%)" stop-opacity="1"/>
<stop offset="0.75" stop-color="rgb(96.803284%, 55.700684%, 1.074219%)" stop-opacity="1"/>
<stop offset="0.753906" stop-color="rgb(97.120667%, 55.543518%, 0.863647%)" stop-opacity="1"/>
<stop offset="0.757812" stop-color="rgb(97.439575%, 55.387878%, 0.654602%)" stop-opacity="1"/>
<stop offset="0.761719" stop-color="rgb(97.756958%, 55.232239%, 0.444031%)" stop-opacity="1"/>
<stop offset="0.765625" stop-color="rgb(98.074341%, 55.076599%, 0.234985%)" stop-opacity="1"/>
<stop offset="0.78125" stop-color="rgb(98.252869%, 54.988098%, 0.117493%)" stop-opacity="1"/>
<stop offset="0.8125" stop-color="rgb(98.431396%, 54.901123%, 0%)" stop-opacity="1"/>
<stop offset="0.875" stop-color="rgb(98.431396%, 54.901123%, 0%)" stop-opacity="1"/>
<stop offset="1" stop-color="rgb(98.431396%, 54.901123%, 0%)" stop-opacity="1"/>
</linearGradient>
</defs>
<g clip-path="url(#clip-0)">
<g clip-path="url(#clip-1)">
<path fill-rule="nonzero" fill="url(#linear-pattern-0)" d="M -770.640625 2214.699219 L 2250.707031 4639.695312 L 4643.640625 1658.300781 L 1622.292969 -766.695312 Z M -770.640625 2214.699219 "/>
</g>
</g>
</svg>
